<svg width="17" height="16" viewBox="0 0 17 16" fill="none" xmlns="http://www.w3.org/2000/svg">
<path d="M4.05745 6.66675C3.32412 6.66675 2.72412 7.26675 2.72412 8.00008C2.72412 8.73341 3.32412 9.33341 4.05745 9.33341C4.79079 9.33341 5.39079 8.73341 5.39079 8.00008C5.39079 7.26675 4.79079 6.66675 4.05745 6.66675ZM13.3908 6.66675C12.6575 6.66675 12.0575 7.26675 12.0575 8.00008C12.0575 8.73341 12.6575 9.33341 13.3908 9.33341C14.1241 9.33341 14.7241 8.73341 14.7241 8.00008C14.7241 7.26675 14.1241 6.66675 13.3908 6.66675ZM8.72412 6.66675C7.99079 6.66675 7.39079 7.26675 7.39079 8.00008C7.39079 8.73341 7.99079 9.33341 8.72412 9.33341C9.45745 9.33341 10.0575 8.73341 10.0575 8.00008C10.0575 7.26675 9.45745 6.66675 8.72412 6.66675Z" fill="black"/>
</svg>
