<svg width="64" height="60" viewBox="0 0 64 60" fill="none" xmlns="http://www.w3.org/2000/svg">
<rect width="64" height="60" rx="30" fill="#FDBE2C" fill-opacity="0.1"/>
<path d="M40 40H24V38C24 36.6739 24.5268 35.4021 25.4645 34.4645C26.4021 33.5268 27.6739 33 29 33H35C36.3261 33 37.5979 33.5268 38.5355 34.4645C39.4732 35.4021 40 36.6739 40 38V40ZM32 31C31.2121 31 30.4319 30.8448 29.7039 30.5433C28.9759 30.2417 28.3145 29.7998 27.7574 29.2426C27.2002 28.6855 26.7583 28.0241 26.4567 27.2961C26.1552 26.5681 26 25.7879 26 25C26 24.2121 26.1552 23.4319 26.4567 22.7039C26.7583 21.9759 27.2002 21.3145 27.7574 20.7574C28.3145 20.2002 28.9759 19.7583 29.7039 19.4567C30.4319 19.1552 31.2121 19 32 19C33.5913 19 35.1174 19.6321 36.2426 20.7574C37.3679 21.8826 38 23.4087 38 25C38 26.5913 37.3679 28.1174 36.2426 29.2426C35.1174 30.3679 33.5913 31 32 31Z" fill="#FDBE2C"/>
</svg>
