<svg width="64" height="60" viewBox="0 0 64 60" fill="none" xmlns="http://www.w3.org/2000/svg">
<rect width="64" height="60" rx="30" fill="#FF8F6B" fill-opacity="0.1"/>
<path d="M25 38H39V40H25V38ZM32 36C29.8783 36 27.8434 35.1571 26.3431 33.6569C24.8429 32.1566 24 30.1217 24 28C24 25.8783 24.8429 23.8434 26.3431 22.3431C27.8434 20.8429 29.8783 20 32 20C34.1217 20 36.1566 20.8429 37.6569 22.3431C39.1571 23.8434 40 25.8783 40 28C40 30.1217 39.1571 32.1566 37.6569 33.6569C36.1566 35.1571 34.1217 36 32 36Z" fill="#FF8F6B"/>
</svg>
