<svg width="64" height="60" viewBox="0 0 64 60" fill="none" xmlns="http://www.w3.org/2000/svg">
<rect width="64" height="60" rx="30" fill="#5B93FF" fill-opacity="0.1"/>
<path d="M32 40C26.477 40 22 35.523 22 30C22 24.477 26.477 20 32 20C37.523 20 42 24.477 42 30C42 35.523 37.523 40 32 40ZM31 30.792V34H33V30.792C33.5264 30.5623 33.9576 30.1583 34.2212 29.648C34.4848 29.1377 34.5646 28.5522 34.4473 27.9899C34.3299 27.4277 34.0226 26.923 33.5769 26.5607C33.1312 26.1985 32.5744 26.0007 32 26.0007C31.4256 26.0007 30.8688 26.1985 30.4231 26.5607C29.9774 26.923 29.6701 27.4277 29.5527 27.9899C29.4354 28.5522 29.5152 29.1377 29.7788 29.648C30.0424 30.1583 30.4736 30.5623 31 30.792Z" fill="#5B93FF"/>
</svg>
