<svg width="100" height="100" viewBox="0 0 100 100" fill="none" xmlns="http://www.w3.org/2000/svg">
<rect width="100" height="100" rx="10" fill="#FAFAFB"/>
<path d="M47 35.5C48.1046 35.5 49 34.6046 49 33.5C49 32.3954 48.1046 31.5 47 31.5C45.8954 31.5 45 32.3954 45 33.5C45 34.6046 45.8954 35.5 47 35.5Z" stroke="#292D32" stroke-width="1.5" stroke-linecap="round" stroke-linejoin="round"/>
<path d="M51 27.5H47C42 27.5 40 29.5 40 34.5V40.5C40 45.5 42 47.5 47 47.5H53C58 47.5 60 45.5 60 40.5V35.5" stroke="#292D32" stroke-width="1.5" stroke-linecap="round" stroke-linejoin="round"/>
<path d="M56 27.5V33.5L58 31.5" stroke="#292D32" stroke-width="1.5" stroke-linecap="round" stroke-linejoin="round"/>
<path d="M56 33.5L54 31.5" stroke="#292D32" stroke-width="1.5" stroke-linecap="round" stroke-linejoin="round"/>
<path d="M40.67 44.4501L45.6 41.1401C46.39 40.6101 47.53 40.6701 48.24 41.2801L48.57 41.5701C49.35 42.2401 50.61 42.2401 51.39 41.5701L55.55 38.0001C56.33 37.3301 57.59 37.3301 58.37 38.0001L60 39.4001" stroke="#292D32" stroke-width="1.5" stroke-linecap="round" stroke-linejoin="round"/>
<path d="M20.015 70.599C18.9957 70.599 18.222 70.3313 17.694 69.796C17.166 69.2533 16.902 68.465 16.902 67.431V62.745H17.804V67.387C17.804 68.993 18.541 69.796 20.015 69.796C21.4743 69.796 22.204 68.993 22.204 67.387V62.745H23.106V67.431C23.106 68.465 22.842 69.2533 22.314 69.796C21.7933 70.3313 21.027 70.599 20.015 70.599ZM24.8389 72.48V65.154H25.7079V66.111C25.8693 65.781 26.1076 65.5243 26.4229 65.341C26.7456 65.1503 27.1196 65.055 27.5449 65.055C28.0216 65.055 28.4359 65.1687 28.7879 65.396C29.1473 65.616 29.4223 65.935 29.6129 66.353C29.8109 66.7637 29.9099 67.255 29.9099 67.827C29.9099 68.3917 29.8109 68.883 29.6129 69.301C29.4223 69.7117 29.1473 70.0307 28.7879 70.258C28.4359 70.4853 28.0216 70.599 27.5449 70.599C27.1343 70.599 26.7676 70.5073 26.4449 70.324C26.1223 70.1407 25.8839 69.8877 25.7299 69.565V72.48H24.8389ZM27.3579 69.884C27.8566 69.884 28.2563 69.708 28.5569 69.356C28.8576 68.9967 29.0079 68.487 29.0079 67.827C29.0079 67.1597 28.8576 66.65 28.5569 66.298C28.2563 65.946 27.8566 65.77 27.3579 65.77C26.8593 65.77 26.4596 65.946 26.1589 66.298C25.8583 66.65 25.7079 67.1597 25.7079 67.827C25.7079 68.487 25.8583 68.9967 26.1589 69.356C26.4596 69.708 26.8593 69.884 27.3579 69.884ZM32.891 70.599C32.3483 70.599 31.9377 70.4413 31.659 70.126C31.3877 69.8033 31.252 69.3377 31.252 68.729V62.745H32.143V68.663C32.143 69.4477 32.4547 69.84 33.078 69.84C33.2613 69.84 33.4263 69.818 33.573 69.774L33.551 70.522C33.3237 70.5733 33.1037 70.599 32.891 70.599ZM36.6752 70.599C36.1545 70.599 35.7035 70.4853 35.3222 70.258C34.9409 70.0307 34.6439 69.7117 34.4312 69.301C34.2259 68.883 34.1232 68.3917 34.1232 67.827C34.1232 67.2623 34.2259 66.7747 34.4312 66.364C34.6439 65.946 34.9409 65.6233 35.3222 65.396C35.7035 65.1687 36.1545 65.055 36.6752 65.055C37.1885 65.055 37.6359 65.1687 38.0172 65.396C38.4059 65.6233 38.7029 65.946 38.9082 66.364C39.1209 66.7747 39.2272 67.2623 39.2272 67.827C39.2272 68.3917 39.1209 68.883 38.9082 69.301C38.7029 69.7117 38.4059 70.0307 38.0172 70.258C37.6359 70.4853 37.1885 70.599 36.6752 70.599ZM36.6752 69.884C37.1739 69.884 37.5735 69.708 37.8742 69.356C38.1749 68.9967 38.3252 68.487 38.3252 67.827C38.3252 67.1597 38.1749 66.65 37.8742 66.298C37.5735 65.946 37.1739 65.77 36.6752 65.77C36.1692 65.77 35.7659 65.946 35.4652 66.298C35.1719 66.65 35.0252 67.1597 35.0252 67.827C35.0252 68.487 35.1719 68.9967 35.4652 69.356C35.7659 69.708 36.1692 69.884 36.6752 69.884ZM42.2485 70.599C41.8818 70.599 41.5518 70.5293 41.2585 70.39C40.9725 70.2433 40.7452 70.0453 40.5765 69.796C40.4078 69.5467 40.3235 69.268 40.3235 68.96C40.3235 68.5713 40.4225 68.2633 40.6205 68.036C40.8258 67.8087 41.1595 67.6473 41.6215 67.552C42.0908 67.4493 42.7288 67.398 43.5355 67.398H43.8875V67.057C43.8875 66.6023 43.7922 66.276 43.6015 66.078C43.4182 65.8727 43.1212 65.77 42.7105 65.77C42.3878 65.77 42.0762 65.8177 41.7755 65.913C41.4748 66.001 41.1668 66.1477 40.8515 66.353L40.5435 65.704C40.8222 65.506 41.1595 65.3483 41.5555 65.231C41.9588 65.1137 42.3438 65.055 42.7105 65.055C43.3998 65.055 43.9095 65.2237 44.2395 65.561C44.5768 65.8983 44.7455 66.4227 44.7455 67.134V70.5H43.9095V69.576C43.7702 69.8913 43.5538 70.1407 43.2605 70.324C42.9745 70.5073 42.6372 70.599 42.2485 70.599ZM42.3915 69.928C42.8315 69.928 43.1908 69.7777 43.4695 69.477C43.7482 69.169 43.8875 68.7803 43.8875 68.311V67.981H43.5465C42.9525 67.981 42.4832 68.0103 42.1385 68.069C41.8012 68.1203 41.5628 68.2157 41.4235 68.355C41.2915 68.487 41.2255 68.6703 41.2255 68.905C41.2255 69.2057 41.3282 69.4513 41.5335 69.642C41.7462 69.8327 42.0322 69.928 42.3915 69.928ZM48.4335 70.599C47.9568 70.599 47.5388 70.4853 47.1795 70.258C46.8275 70.0307 46.5525 69.7117 46.3545 69.301C46.1638 68.883 46.0685 68.3917 46.0685 67.827C46.0685 67.255 46.1638 66.7637 46.3545 66.353C46.5525 65.935 46.8275 65.616 47.1795 65.396C47.5388 65.1687 47.9568 65.055 48.4335 65.055C48.8515 65.055 49.2182 65.1467 49.5335 65.33C49.8562 65.5133 50.0945 65.7663 50.2485 66.089V62.745H51.1395V70.5H50.2705V69.521C50.1165 69.8583 49.8782 70.1223 49.5555 70.313C49.2328 70.5037 48.8588 70.599 48.4335 70.599ZM48.6205 69.884C49.1192 69.884 49.5188 69.708 49.8195 69.356C50.1202 68.9967 50.2705 68.487 50.2705 67.827C50.2705 67.1597 50.1202 66.65 49.8195 66.298C49.5188 65.946 49.1192 65.77 48.6205 65.77C48.1145 65.77 47.7112 65.946 47.4105 66.298C47.1172 66.65 46.9705 67.1597 46.9705 67.827C46.9705 68.487 47.1172 68.9967 47.4105 69.356C47.7112 69.708 48.1145 69.884 48.6205 69.884ZM55.7578 70.5V62.745H58.8268C59.6628 62.745 60.3008 62.9467 60.7408 63.35C61.1881 63.7533 61.4118 64.329 61.4118 65.077C61.4118 65.8177 61.1881 66.3933 60.7408 66.804C60.3008 67.2073 59.6628 67.409 58.8268 67.409H56.6598V70.5H55.7578ZM56.6598 66.65H58.7168C59.9194 66.65 60.5208 66.1257 60.5208 65.077C60.5208 64.021 59.9194 63.493 58.7168 63.493H56.6598V66.65ZM62.5977 70.5V62.745H63.4887V66.034C63.6647 65.7113 63.9104 65.4693 64.2257 65.308C64.5484 65.1393 64.9077 65.055 65.3037 65.055C66.5724 65.055 67.2067 65.759 67.2067 67.167V70.5H66.3157V67.222C66.3157 66.7233 66.2167 66.3603 66.0187 66.133C65.8281 65.8983 65.5201 65.781 65.0947 65.781C64.6034 65.781 64.2111 65.935 63.9177 66.243C63.6317 66.5437 63.4887 66.947 63.4887 67.453V70.5H62.5977ZM71.0717 70.599C70.551 70.599 70.1 70.4853 69.7187 70.258C69.3373 70.0307 69.0403 69.7117 68.8277 69.301C68.6223 68.883 68.5197 68.3917 68.5197 67.827C68.5197 67.2623 68.6223 66.7747 68.8277 66.364C69.0403 65.946 69.3373 65.6233 69.7187 65.396C70.1 65.1687 70.551 65.055 71.0717 65.055C71.585 65.055 72.0323 65.1687 72.4137 65.396C72.8023 65.6233 73.0993 65.946 73.3047 66.364C73.5173 66.7747 73.6237 67.2623 73.6237 67.827C73.6237 68.3917 73.5173 68.883 73.3047 69.301C73.0993 69.7117 72.8023 70.0307 72.4137 70.258C72.0323 70.4853 71.585 70.599 71.0717 70.599ZM71.0717 69.884C71.5703 69.884 71.97 69.708 72.2707 69.356C72.5713 68.9967 72.7217 68.487 72.7217 67.827C72.7217 67.1597 72.5713 66.65 72.2707 66.298C71.97 65.946 71.5703 65.77 71.0717 65.77C70.5657 65.77 70.1623 65.946 69.8617 66.298C69.5683 66.65 69.4217 67.1597 69.4217 67.827C69.4217 68.487 69.5683 68.9967 69.8617 69.356C70.1623 69.708 70.5657 69.884 71.0717 69.884ZM77.0533 70.599C76.4226 70.599 75.9496 70.434 75.6343 70.104C75.3189 69.7667 75.1613 69.2827 75.1613 68.652V65.847H74.1163V65.154H75.1613V63.515H76.0523V65.154H77.7463V65.847H76.0523V68.564C76.0523 68.982 76.1403 69.301 76.3163 69.521C76.4923 69.7337 76.7783 69.84 77.1743 69.84C77.2916 69.84 77.4089 69.8253 77.5263 69.796C77.6436 69.7667 77.7499 69.7373 77.8453 69.708L77.9993 70.39C77.9039 70.4413 77.7646 70.489 77.5813 70.533C77.3979 70.577 77.2219 70.599 77.0533 70.599ZM80.9223 70.599C80.4016 70.599 79.9506 70.4853 79.5693 70.258C79.1879 70.0307 78.8909 69.7117 78.6783 69.301C78.4729 68.883 78.3703 68.3917 78.3703 67.827C78.3703 67.2623 78.4729 66.7747 78.6783 66.364C78.8909 65.946 79.1879 65.6233 79.5693 65.396C79.9506 65.1687 80.4016 65.055 80.9223 65.055C81.4356 65.055 81.8829 65.1687 82.2643 65.396C82.6529 65.6233 82.9499 65.946 83.1553 66.364C83.3679 66.7747 83.4743 67.2623 83.4743 67.827C83.4743 68.3917 83.3679 68.883 83.1553 69.301C82.9499 69.7117 82.6529 70.0307 82.2643 70.258C81.8829 70.4853 81.4356 70.599 80.9223 70.599ZM80.9223 69.884C81.4209 69.884 81.8206 69.708 82.1213 69.356C82.4219 68.9967 82.5723 68.487 82.5723 67.827C82.5723 67.1597 82.4219 66.65 82.1213 66.298C81.8206 65.946 81.4209 65.77 80.9223 65.77C80.4163 65.77 80.0129 65.946 79.7123 66.298C79.4189 66.65 79.2723 67.1597 79.2723 67.827C79.2723 68.487 79.4189 68.9967 79.7123 69.356C80.0129 69.708 80.4163 69.884 80.9223 69.884Z" fill="black"/>
</svg>
